<svg width="101" height="100" fill="none" xmlns="http://www.w3.org/2000/svg"><path d="M40.606 9.118v4.3H29.61V.098h10.996V4.81h-6.283v4.307h6.283zM51.91 4.81h4.393V.098H45.306V4.81c1.47 1.471 2.238 2.175 4.366 4.303-1.244 0-4.366.004-4.366.004v4.3h10.997v-4.3L51.91 4.81zm15.587 0h4.393V.098H60.893V4.81c1.47 1.471 2.238 2.175 4.366 4.303-1.243 0-4.366.004-4.366.004v4.3H71.89v-4.3L67.497 4.81zm18.877 14.938l-6.68 72.36-28.944 7.793-28.945-7.793-6.679-72.36h71.248zm-13.46 14.713H28.141l1.08 8.738H51.93l-1.207.503-20.717 8.628.688 8.54 20.029.066 10.735.034-.688 11.389-10.047 2.829v-.01l-.083.024-9.704-2.45-.589-7.07h-9.064l1.178 13.648 18.262 5.4v-.01l.032.01 18.165-5.301 2.356-27.099H50.673l.05-.022L72.03 43.2l.885-8.738z" fill="#D7D7D7"/></svg>