<svg width="101" height="100" fill="none" xmlns="http://www.w3.org/2000/svg"><g clip-path="url(#clip0_4_248)"><path fill-rule="evenodd" clip-rule="evenodd" d="M94.125 26.01c.215 1.596.335 3.3.335 5.14 0 8.79-.815 9.285-19.075 62.07C90.25 84.55 100.25 68.445 100.25 50c0-8.695-2.22-16.87-6.125-23.99zM51.13 54.376L36.125 97.964a50.015 50.015 0 0030.73-.794 4.493 4.493 0 01-.355-.69L51.13 54.375zm32.875-6.9c0-6.18-2.22-10.46-4.125-13.79-2.53-4.12-4.91-7.605-4.91-11.725 0-4.595 3.49-8.874 8.4-8.874.22 0 .43.029.645.039C75.12 4.975 63.27 0 50.25 0 32.785 0 17.415 8.96 8.475 22.534c3.185.1 7.46.141 16.545-.569 2.695-.16 3.01 3.8.32 4.114 0 0-2.71.321-5.725.481l18.21 54.16 10.94-32.82-7.79-21.345c-2.69-.155-5.24-.476-5.24-.476-2.695-.16-2.38-4.279.315-4.119 10.335.795 15.625.855 26.495 0 2.695-.16 3.015 3.8.32 4.12 0 0-2.715.32-5.725.475l18.07 53.75c7.135-23.84 8.795-27.83 8.795-32.83zM.25 50c0 19.79 11.5 36.895 28.18 45L4.58 29.65A49.803 49.803 0 00.25 50z" fill="#D7D7D7"/></g><defs><clipPath id="clip0_4_248"><path fill="#fff" transform="translate(.25)" d="M0 0h100v100H0z"/></clipPath></defs></svg>