<svg width="101" height="100" fill="none" xmlns="http://www.w3.org/2000/svg"><path d="M21.974.098h4.499v4.444h4.115V.098h4.499v13.459h-4.499V9.05h-4.115v4.507h-4.498V.097zM41.002 4.56h-3.96V.098h12.421V4.56h-3.962v8.996h-4.498V4.56zM51.434.098h4.692l2.885 4.729 2.882-4.73h4.692v13.46h-4.48V6.886l-3.095 4.785h-.077l-3.097-4.785v6.67h-4.402V.099zm17.39 0h4.5v9.01h6.326v4.449H68.824V.097zM15.396 19.712l6.435 72.174 28.876 8.016 28.955-8.027 6.442-72.163H15.396zM72.682 36.84l-.403 4.488-.177 1.99H38.228l.809 9.063h32.259l-.216 2.378L69 78.063l-.133 1.495-18.117 5.021v.002l-.04.011-18.133-5.034-1.24-13.898h8.885l.63 7.06 9.86 2.662.007-.003 9.873-2.665 1.027-11.48H30.941L28.766 36.84l-.212-2.375h44.34l-.212 2.375z" fill="#D7D7D7"/></svg>