<svg width="101" height="100" fill="none" xmlns="http://www.w3.org/2000/svg"><g clip-path="url(#clip0_4_232)"><path fill-rule="evenodd" clip-rule="evenodd" d="M.75 0h100v100H.75V0zm76.445 83.832c-4.635 0-7.256-2.418-9.27-5.707l-7.637 4.437c2.759 5.45 8.397 9.61 17.124 9.61 8.925 0 15.571-4.635 15.571-13.096 0-7.847-4.508-11.338-12.492-14.762l-2.349-1.006c-4.032-1.746-5.778-2.887-5.778-5.706 0-2.281 1.745-4.027 4.497-4.027 2.699 0 4.436 1.137 6.048 4.027l7.317-4.699c-3.095-5.444-7.39-7.524-13.365-7.524-8.392 0-13.762 5.366-13.762 12.413 0 7.65 4.505 11.27 11.286 14.159l2.35 1.008c4.285 1.874 6.84 3.016 6.84 6.238 0 2.689-2.487 4.635-6.38 4.635zm-36.418-.06c-3.229 0-4.572-2.213-6.048-4.832l-7.649 4.63c2.216 4.69 6.573 8.584 14.097 8.584 8.327 0 14.032-4.429 14.032-14.159v-32.08h-9.397v31.953c0 4.697-1.948 5.905-5.035 5.905z" fill="#D7D7D7"/></g><defs><clipPath id="clip0_4_232"><path fill="#fff" transform="translate(.75)" d="M0 0h100v100H0z"/></clipPath></defs></svg>